<svg xmlns="http://www.w3.org/2000/svg" xmlns:xlink="http://www.w3.org/1999/xlink" version="1.1" width="1024" height="768" viewBox="0 0 1024 768" xml:space="preserve">
<desc>Created with Fabric.js 6.7.1</desc>
<defs>
</defs>
<g transform="matrix(2.8812 0 0 2.8812 520.1377 329.8681)" id="vectorized-icon-ai-9d346ffe-71e2-465f-9189-097c725f6586">
<g style="">
		<g transform="matrix(0.1268 0 0 0.1268 -16.3765 19.6636)">
<path style="stroke: none; stroke-width: 1; stroke-dasharray: none; stroke-linecap: butt; stroke-dashoffset: 0; stroke-linejoin: miter; stroke-miterlimit: 4; fill: rgb(75,74,77); fill-rule: nonzero; opacity: 1;" transform=" translate(-906.6201, -1183.7475)" d="M 1035.83 811.955 C 1046.44 814.493 1102.26 850.222 1115.23 858.053 L 1251.35 939.664 C 1279.33 956.304 1307.59 972.475 1335.43 989.347 C 1345.73 995.587 1357.3 1000.98 1366.67 1008.54 C 1368.25 1044.74 1366.8 1081.58 1366.83 1117.86 L 1366.81 1334.03 L 1366.81 1476.3 C 1366.8 1502.53 1368.02 1529.39 1365.96 1555.54 C 1341.66 1553.46 1316.88 1554.55 1292.5 1554.6 L 1171.06 1554.63 L 679.469 1554.69 L 529.043 1554.84 C 501.633 1554.91 473.39 1556.46 446.104 1554.38 C 445.97 1544.08 445.997 1533.78 446.184 1523.48 C 458.692 1519.09 471.791 1515.75 484.498 1511.92 L 561.882 1488.35 L 889.845 1389.48 L 998.152 1357.48 C 1010.79 1353.77 1023.59 1350.78 1036.16 1346.8 C 1036.05 1321.53 1034.29 1294.95 1037.43 1269.88 C 1024.51 1274.98 1011.2 1278.88 998.035 1283.27 L 923.004 1308.01 L 704.254 1379.97 C 666.856 1390.91 630.092 1404.89 592.974 1416.86 L 500.897 1446.74 C 482.71 1452.59 464.377 1457.92 446.415 1464.45 C 445.209 1443.24 446.231 1421.51 446.323 1400.25 C 446.393 1383.99 445.336 1367.39 446.7 1351.21 C 463.489 1340.6 488.674 1330.83 507.252 1322.21 C 560.913 1297.31 615.361 1274.17 669.374 1250.07 C 756.661 1210.72 844.265 1172.07 932.179 1134.14 L 1004.9 1101.84 C 1015.33 1097.24 1025.48 1091.99 1036.2 1088.05 C 1035.69 1061.5 1035.86 1034.8 1036.12 1008.24 C 1013.23 1018.12 990.949 1029.83 968.337 1040.37 L 745.801 1146.47 L 564.234 1233.5 L 486.991 1270.94 C 473.57 1277.41 459.865 1283.26 446.707 1290.27 C 445.562 1268.18 446.422 1245.76 446.384 1223.63 C 446.344 1199.47 445.479 1174.98 446.707 1150.87 C 457.206 1142.93 469.081 1136.67 480.479 1130.13 L 526.984 1103.5 C 577.151 1074.18 627.616 1045.36 678.37 1017.07 C 730.88 987.822 782.599 956.793 834.702 926.794 L 1035.83 811.955 Z" stroke-linecap="round"/>
</g>
		<g transform="matrix(0.1268 0 0 0.1268 -0.0035 -0.0315)">
<path style="stroke: none; stroke-width: 1; stroke-dasharray: none; stroke-linecap: butt; stroke-dashoffset: 0; stroke-linejoin: miter; stroke-miterlimit: 4; fill: rgb(9,189,155); fill-rule: nonzero; opacity: 1;" transform=" translate(-1035.7447, -1028.4389)" d="M 1033.5 501.784 C 1033.98 501.824 1034.45 501.848 1034.93 501.905 C 1038.83 502.369 1042.06 504.365 1045.37 506.341 L 1442 742.388 L 1548.41 804.976 C 1569.42 817.168 1591.05 828.823 1611.52 841.856 C 1616.88 845.266 1620.68 849.07 1624.67 853.942 C 1625.8 915.277 1626.17 976.624 1625.77 1037.97 L 1625.74 1312.27 L 1625.6 1469.22 L 1625.8 1520.18 C 1625.83 1531.46 1626.41 1542.95 1624.93 1554.15 C 1603.02 1556.15 1579.73 1554.35 1557.63 1554.35 C 1526.74 1554.35 1495.13 1555.87 1464.34 1553.89 C 1461.57 1530.17 1463.13 1505.14 1463.22 1481.23 L 1463.44 1354.55 L 1463.45 1092.81 C 1463.53 1045.72 1462.21 998.438 1464.2 951.396 C 1430.25 932.291 1396.92 912.091 1363.52 892.063 C 1296.85 853.366 1230.38 814.303 1164.13 774.874 C 1138.89 760.018 1113.71 745.027 1088.62 729.903 C 1071.42 719.609 1053.48 709.518 1037.22 697.797 C 1027.74 701.539 1019.57 708.42 1010.62 713.325 C 976.32 732.455 942.252 751.998 908.422 771.947 L 610.273 945.258 C 582.045 961.894 553.112 977.531 525.091 994.454 C 506.935 1005.42 488.616 1015.95 470.361 1026.73 C 462.936 1031.11 455.8 1036.43 447.997 1040.09 L 446.761 1038.98 C 444.464 1029.99 446.156 1002.66 446.11 991.041 L 446.175 913.37 C 446.103 897.504 445.407 881.492 445.879 865.64 C 445.997 861.666 446.318 857.65 447.329 853.794 C 448.997 847.427 452.484 844.843 457.785 841.344 C 475.719 829.509 495.41 819.39 514.004 808.485 L 653.696 726.904 L 861.679 604.477 L 956.039 548.346 C 981.721 532.807 1007.36 516.474 1033.5 501.784 Z" stroke-linecap="round"/>
</g>
</g>
</g>
</svg>